<svg width="48" height="48" viewBox="0 0 48 48" fill="none" xmlns="http://www.w3.org/2000/svg">
<path d="M24 17.3H23.9995C23.6657 17.2997 23.3376 17.3874 23.0485 17.5541C22.7612 17.7198 22.5223 17.9577 22.3556 18.2442C22.172 18.5831 21.9227 18.882 21.6222 19.1234C21.3196 19.3666 20.9712 19.5465 20.5978 19.6525C20.2243 19.7585 19.8334 19.7885 19.4482 19.7406C19.063 19.6927 18.6913 19.568 18.3551 19.3738C18.019 19.1796 17.7253 18.9199 17.4913 18.6101C17.2574 18.3003 17.0881 17.9467 16.9934 17.5702C16.8987 17.1938 16.8805 16.8021 16.94 16.4185C16.9991 16.0375 17.1335 15.672 17.3355 15.3436C18.1831 13.8789 19.4898 12.7341 21.0535 12.0864C22.6195 11.4378 24.3557 11.324 25.9929 11.7627C27.6301 12.2014 29.0769 13.1681 30.1087 14.5128C31.1405 15.8574 31.6999 17.505 31.7 19.1999L24 17.3ZM24 17.3C24.5039 17.3 24.9872 17.5002 25.3435 17.8565C25.6998 18.2129 25.9 18.6961 25.9 19.2C25.9 19.704 25.6998 20.1872 25.3435 20.5436C24.9872 20.8999 24.5039 21.1 24 21.1C23.2309 21.1 22.4932 21.4056 21.9494 21.9494C21.4055 22.4933 21.1 23.2309 21.1 24V26.4C21.1 27.1692 21.4055 27.9068 21.9494 28.4507C22.4932 28.9945 23.2309 29.3 24 29.3C24.7691 29.3 25.5067 28.9945 26.0506 28.4507C26.5945 27.9068 26.9 27.1692 26.9 26.4V26.3368C28.2606 25.7833 29.4371 24.8511 30.2877 23.6475C31.207 22.3467 31.7004 20.7929 31.7 19.2L24 17.3ZM42.7 24C42.7 28.9596 40.7298 33.716 37.2229 37.2229C33.716 40.7299 28.9595 42.7 24 42.7C19.0404 42.7 14.284 40.7299 10.7771 37.2229C7.27016 33.716 5.29999 28.9596 5.29999 24C5.29999 19.0405 7.27016 14.2841 10.7771 10.7772C14.284 7.27022 19.0404 5.30005 24 5.30005C28.9595 5.30005 33.716 7.27022 37.2229 10.7772C40.7298 14.2841 42.7 19.0405 42.7 24ZM24 36.5C24.7691 36.5 25.5067 36.1945 26.0506 35.6507C26.5945 35.1068 26.9 34.3692 26.9 33.6C26.9 32.8309 26.5945 32.0933 26.0506 31.5494C25.5067 31.0056 24.7691 30.7 24 30.7C23.2309 30.7 22.4932 31.0056 21.9494 31.5494C21.4055 32.0933 21.1 32.8309 21.1 33.6C21.1 34.3692 21.4055 35.1068 21.9494 35.6507C22.4932 36.1945 23.2309 36.5 24 36.5Z" fill="#FEF08A" stroke="#D4D4D8"/>
</svg>
