<svg width="28" height="28" viewBox="0 0 28 28" fill="none" xmlns="http://www.w3.org/2000/svg">
<path d="M11 17L14 14M14 14L17 11M14 14L11 11M14 14L17 17M27.5 14C27.5 15.7728 27.1508 17.5283 26.4724 19.1662C25.7939 20.8041 24.7995 22.2923 23.5459 23.5459C22.2923 24.7995 20.8041 25.7939 19.1662 26.4724C17.5283 27.1508 15.7728 27.5 14 27.5C12.2272 27.5 10.4717 27.1508 8.83377 26.4724C7.19588 25.7939 5.70765 24.7995 4.45406 23.5459C3.20047 22.2923 2.20606 20.8041 1.52763 19.1662C0.849188 17.5283 0.5 15.7728 0.5 14C0.5 10.4196 1.92232 6.9858 4.45406 4.45406C6.9858 1.92232 10.4196 0.5 14 0.5C17.5804 0.5 21.0142 1.92232 23.5459 4.45406C26.0777 6.9858 27.5 10.4196 27.5 14Z" stroke="#3F3F46" stroke-linecap="round" stroke-linejoin="round"/>
</svg>
