<svg width="37" height="38" viewBox="0 0 37 38" fill="none" xmlns="http://www.w3.org/2000/svg">
<path d="M18.5 17.4584C18.5 22.8805 16.9445 27.9402 14.2558 32.2137M8.95246 29.0687L9.03571 28.93C11.1979 25.495 12.3414 21.5172 12.3333 17.4584C12.3333 15.8229 12.983 14.2544 14.1395 13.0979C15.296 11.9415 16.8645 11.2918 18.5 11.2918C20.1355 11.2918 21.704 11.9415 22.8605 13.0979C24.017 14.2544 24.6667 15.8229 24.6667 17.4584C24.6667 19.0263 24.5587 20.571 24.3537 22.0834M21.0885 32.6346C22.04 30.736 22.8102 28.7518 23.3886 26.7084M29.3071 28.4536C30.3015 24.9602 30.8333 21.271 30.8333 17.4584C30.8338 15.2932 30.2643 13.1661 29.182 11.2908C28.0997 9.41549 26.5429 7.85816 24.6679 6.77536C22.7929 5.69256 20.6659 5.12244 18.5007 5.12231C16.3355 5.12219 14.2084 5.69207 12.3333 6.77467M4.625 24.1863C5.61167 22.1528 6.16667 19.8696 6.16667 17.4584C6.16667 15.2122 6.76792 13.1063 7.81625 11.2918" stroke="#3F3F46" stroke-width="2" stroke-linecap="round" stroke-linejoin="round"/>
</svg>
