<svg width="39" height="39" viewBox="0 0 39 39" fill="none" xmlns="http://www.w3.org/2000/svg">
<circle cx="19.5" cy="19.5" r="18.5" fill="#FEF08A"/>
<path fill-rule="evenodd" clip-rule="evenodd" d="M38.4 19.2C38.4 24.2922 36.3771 29.1757 32.7764 32.7764C29.1757 36.3771 24.2922 38.4 19.2 38.4C14.1078 38.4 9.22425 36.3771 5.62355 32.7764C2.02285 29.1757 0 24.2922 0 19.2C0 14.1078 2.02285 9.22425 5.62355 5.62355C9.22425 2.02285 14.1078 0 19.2 0C24.2922 0 29.1757 2.02285 32.7764 5.62355C36.3771 9.22425 38.4 14.1078 38.4 19.2ZM19.2 12C18.7783 11.9996 18.364 12.1103 17.9987 12.321C17.6334 12.5316 17.33 12.8348 17.1192 13.2C16.967 13.4829 16.7595 13.7324 16.509 13.9336C16.2586 14.1348 15.9703 14.2837 15.6612 14.3714C15.3522 14.4592 15.0287 14.484 14.7099 14.4444C14.391 14.4048 14.0834 14.3015 13.8052 14.1408C13.5271 13.9801 13.284 13.7652 13.0904 13.5088C12.8968 13.2524 12.7567 12.9598 12.6783 12.6482C12.5999 12.3366 12.5849 12.0125 12.6341 11.695C12.6833 11.3776 12.7958 11.0732 12.9648 10.8C13.7573 9.42747 14.9806 8.35479 16.4449 7.74831C17.9091 7.14183 19.5326 7.03545 21.0635 7.44566C22.5944 7.85587 23.9472 8.75975 24.9121 10.0171C25.8769 11.2745 26.3999 12.8151 26.4 14.4C26.4004 15.8895 25.9391 17.3425 25.0794 18.5588C24.2198 19.7752 23.0042 20.6952 21.6 21.192V21.6C21.6 22.2365 21.3471 22.847 20.8971 23.2971C20.447 23.7471 19.8365 24 19.2 24C18.5635 24 17.953 23.7471 17.5029 23.2971C17.0529 22.847 16.8 22.2365 16.8 21.6V19.2C16.8 18.5635 17.0529 17.953 17.5029 17.5029C17.953 17.0529 18.5635 16.8 19.2 16.8C19.8365 16.8 20.447 16.5471 20.8971 16.0971C21.3471 15.647 21.6 15.0365 21.6 14.4C21.6 13.7635 21.3471 13.153 20.8971 12.7029C20.447 12.2529 19.8365 12 19.2 12ZM19.2 31.2C19.8365 31.2 20.447 30.9471 20.8971 30.4971C21.3471 30.047 21.6 29.4365 21.6 28.8C21.6 28.1635 21.3471 27.553 20.8971 27.1029C20.447 26.6529 19.8365 26.4 19.2 26.4C18.5635 26.4 17.953 26.6529 17.5029 27.1029C17.0529 27.553 16.8 28.1635 16.8 28.8C16.8 29.4365 17.0529 30.047 17.5029 30.4971C17.953 30.9471 18.5635 31.2 19.2 31.2Z" fill="#3F3F46"/>
</svg>
